<svg width="200" height="60" viewBox="0 0 200 60" xmlns="http://www.w3.org/2000/svg">
  <defs>
    <pattern id="epoxyPatternWhite" x="0" y="0" width="8" height="8" patternUnits="userSpaceOnUse">
      <rect width="4" height="4" fill="#ffffff" opacity="0.2"/>
      <rect x="4" y="4" width="4" height="4" fill="#ffffff" opacity="0.2"/>
    </pattern>
  </defs>
  
  <!-- Shield/Icon Background -->
  <g transform="translate(5, 5)">
    <!-- Shield shape -->
    <path d="M 20 0 L 35 5 L 40 20 L 35 35 L 20 40 L 5 35 L 0 20 L 5 5 Z" 
          fill="#ffffff" 
          stroke="#ffffff" 
          stroke-width="0.5"
          opacity="0.95"/>
    
    <!-- Geometric pattern inside shield representing epoxy floor -->
    <g opacity="0.4">
      <rect x="8" y="12" width="24" height="16" fill="url(#epoxyPatternWhite)" rx="2"/>
      <line x1="12" y1="16" x2="28" y2="16" stroke="#1e3a5f" stroke-width="0.5" opacity="0.3"/>
      <line x1="12" y1="20" x2="28" y2="20" stroke="#1e3a5f" stroke-width="0.5" opacity="0.3"/>
      <line x1="12" y1="24" x2="28" y2="24" stroke="#1e3a5f" stroke-width="0.5" opacity="0.3"/>
    </g>
    
    <!-- Small accent dots representing flakes -->
    <circle cx="15" cy="18" r="1.5" fill="#1e3a5f" opacity="0.4"/>
    <circle cx="25" cy="22" r="1.5" fill="#1e3a5f" opacity="0.4"/>
    <circle cx="20" cy="26" r="1.5" fill="#1e3a5f" opacity="0.4"/>
  </g>
  
  <!-- Text -->
  <g transform="translate(50, 0)">
    <!-- IRONSIDE Text -->
    <text x="0" y="28" 
          font-family="Inter, -apple-system, BlinkMacSystemFont, 'Segoe UI', sans-serif" 
          font-size="22" 
          font-weight="800" 
          fill="#ffffff" 
          letter-spacing="-0.5px">
      IRONSIDE
    </text>
    
    <!-- EPOXY Text -->
    <text x="0" y="45" 
          font-family="Inter, -apple-system, BlinkMacSystemFont, 'Segoe UI', sans-serif" 
          font-size="12" 
          font-weight="600" 
          fill="#ffffff" 
          letter-spacing="2px" 
          opacity="0.9">
      EPOXY
    </text>
  </g>
</svg>

